<?xml version="1.0" encoding="utf-8"?>
<svg version="1.1" xmlns:xlink="http://www.w3.org/1999/xlink" width="23px" height="23px" xmlns="http://www.w3.org/2000/svg">
  <g transform="matrix(1 0 0 1 -39 -379 )">
    <path d="M 8.77165971235795 14.4792136452415  C 7.3967695756392 15.3094515713778  7.19280894886364 14.013047096946  7.19280894886364 14.013047096946  L 5.46964666193182 9.65759055397727  C 4.80669167258523 7.5878662109375  6.04352361505682 8.72436412464489  6.04352361505682 8.72436412464489  C 6.04352361505682 8.72436412464489  7.10480291193182 9.5940107865767  7.91023171164773 10.1239868164062  C 8.71522660688921 10.6539628462358  9.63290904651989 10.2795543323864  9.63290904651989 10.2795543323864  L 20.8980646306818 4.64739768288352  C 18.819687721946 1.84603382457386  15.3862781871449 0.0143188476562487  11.4994129527699 0.0143188476562487  C 5.15606134588068 0.0143188476562487  0.0143443714488624 4.88890380859375  0.0143443714488624 10.9022583007812  C 0.0143443714488624 14.3612171519886  1.71690895774148 17.4396928267045  4.36883101029829 19.4348621715199  L 3.89064275568182 22.4128506747159  C 3.89064275568182 22.4128506747159  3.65745738636364 23.2821144797585  4.46548961292614 22.8789661754261  C 5.01606334339489 22.6040749289773  6.41966774680398 21.6188054865057  7.25524014559659 21.0193026455966  C 8.56879660866477 21.5149236505682  9.99986461292614 21.7901977539062  11.5001020951705 21.7901977539062  C 17.8428666548295 21.7901977539062  22.9856301047585 16.9157148881392  22.9856301047585 10.9023093483665  C 22.9856301047585 9.16048916903408  22.5523892489347 7.51558283025568  21.7846846147017 6.05551979758522  C 18.19560546875 8.39464777166192  9.84751309481534 13.8307051225142  8.77168523615056 14.4792391690341  Z " fill-rule="nonzero" fill="#00c900" stroke="none" transform="matrix(1 0 0 1 39 379 )" />
  </g>
</svg>