<?xml version="1.0" encoding="utf-8"?>
<svg version="1.1" xmlns:xlink="http://www.w3.org/1999/xlink" width="22px" height="22px" xmlns="http://www.w3.org/2000/svg">
  <g transform="matrix(1 0 0 1 -39 -423 )">
    <path d="M 21.896335078534 15.0421256544503  L 21.896335078534 4.26224083769634  C 21.896335078534 1.93841884816754  20.010554973822 0.0526387434554975  17.6853507853403 0  L 4.20960209424084 0  C 1.88589528795812 0.0526387434554974  0 1.93841884816754  0 4.26224083769634  L 0 17.7379895287958  C 0 20.0616963350785  1.88439790575916 21.9474764397906  4.20960209424084 22  L 17.6853507853403 22  C 19.7558848167539 21.9474764397906  21.4789109947644 20.4503246073298  21.8305654450262 18.4811518324607  C 20.7138638743455 17.9979581151832  15.8747853403141 15.9081884816754  13.3538848167539 14.7052146596859  C 11.4353926701571 17.0291518324607  9.42625130890052 18.4236753926702  6.39773821989529 18.4236753926702  C 3.36922513089005 18.4236753926702  1.34787434554974 16.5582827225131  1.59010471204188 14.2755811518325  C 1.75020942408377 12.7770471204188  2.77798952879581 10.327445026178  7.24203141361257 10.7475183246073  C 9.59453403141361 10.9678638743455  10.671612565445 11.4072879581152  12.590335078534 12.0407958115183  C 13.0870052356021 11.1309633507853  13.4987853403141 10.1289842931937  13.8121989528796 9.06296335078534  L 5.30441884816754 9.06296335078534  L 5.30441884816754 8.21993717277487  L 9.5139057591623 8.21993717277487  L 9.5139057591623 6.70631413612565  L 4.37926701570681 6.70631413612565  L 4.37926701570681 5.77851308900523  L 9.5139057591623 5.77851308900523  L 9.5139057591623 3.59440837696335  C 9.5139057591623 3.59440837696335  9.56043979057592 3.25219895287958  9.93824083769633 3.25219895287958  L 12.0429842931937 3.25219895287958  L 12.0429842931937 5.77851308900523  L 17.5168376963351 5.77851308900523  L 17.5168376963351 6.70631413612565  L 12.0429842931937 6.70631413612565  L 12.0429842931937 8.21993717277487  L 16.5085235602094 8.21993717277487  C 16.0978952879581 9.89090052356021  15.4752146596859 11.4262931937173  14.6951937172775 12.7674869109948  C 15.992502617801 13.2368586387435  21.896335078534 15.0421256544503  21.896335078534 15.0421256544503  Z M 6.06255497382199 16.9783560209424  C 2.86299476439791 16.9783560209424  2.35664921465969 14.9586178010471  2.52631413612565 14.1140942408377  C 2.69459685863874 13.273832460733  3.62113089005236 12.1777486910995  5.40025130890052 12.1777486910995  C 7.44475392670157 12.1777486910995  9.2758219895288 12.7004502617801  11.4736335078534 13.770502617801  C 9.92994764397906 15.7810261780105  8.03322513089005 16.9783560209424  6.06255497382199 16.9783560209424  Z " fill-rule="nonzero" fill="#00aaee" stroke="none" transform="matrix(1 0 0 1 39 423 )" />
  </g>
</svg>