<?xml version="1.0" encoding="utf-8"?>
<svg version="1.1" xmlns:xlink="http://www.w3.org/1999/xlink" width="17px" height="17px" xmlns="http://www.w3.org/2000/svg">
  <g transform="matrix(1 0 0 1 -315 -384 )">
    <path d="M 16.9517045454545 8.49030168608757  C 16.9517045454545 3.84634754590395  13.1522860440341 0.0683946857344632  8.48194580078125 0.0683946857344632  C 3.81160555752841 0.0683946857344632  0.0121870561079548 3.84634754590395  0.0121870561079548 8.49030168608757  C 0.0121870561079548 13.1342558262712  3.81160555752841 16.9122086864407  8.48194580078125 16.9122086864407  C 13.1522860440341 16.9122086864407  16.9517045454545 13.1342558262712  16.9517045454545 8.49030168608757  Z M 14.0792569247159 5.65227864583333  C 13.6189408735795 5.92863369526836  8.3862227006392 11.2280025158898  6.85606800426136 13.3603372175141  L 2.91857355291193 9.56743357168079  L 5.13339177911932 7.83184807556497  L 7.02010276100852 9.60373190324859  C 7.77200261896307 8.96461864406779  8.54842751242898 8.34630892478813  9.15283757990057 7.88621115819209  C 9.50099875710227 7.62120519950565  9.83110573508523 7.36858006709039  10.1509310635653 7.1385593220339  C 10.4737182617187 6.90634379413842  10.8162198153409 6.66264786370056  11.1853781960227 6.40899099576271  C 11.8188032670455 5.97384246998587  12.6391279740767 5.40751346221751  13.4914295543324 4.87737023305085  L 14.0792569247159 5.65227864583333  Z " fill-rule="nonzero" fill="#23d3d3" stroke="none" transform="matrix(1 0 0 1 315 384 )" />
  </g>
</svg>