<?xml version="1.0" encoding="utf-8"?>
<svg version="1.1" xmlns:xlink="http://www.w3.org/1999/xlink" width="17px" height="17px" xmlns="http://www.w3.org/2000/svg">
  <g transform="matrix(1 0 0 1 -315 -427 )">
    <path d="M 323.5 427  C 328.26 427  332 430.74  332 435.5  C 332 440.26  328.26 444  323.5 444  C 318.74 444  315 440.26  315 435.5  C 315 430.74  318.74 427  323.5 427  Z " fill-rule="nonzero" fill="#ffffff" stroke="none" />
    <path d="M 323.5 427.5  C 327.98 427.5  331.5 431.02  331.5 435.5  C 331.5 439.98  327.98 443.5  323.5 443.5  C 319.02 443.5  315.5 439.98  315.5 435.5  C 315.5 431.02  319.02 427.5  323.5 427.5  Z " stroke-width="1" stroke="#b5b5b5" fill="none" />
  </g>
</svg>