<?xml version="1.0" encoding="utf-8"?>
<svg version="1.1" xmlns:xlink="http://www.w3.org/1999/xlink" width="9px" height="10px" xmlns="http://www.w3.org/2000/svg">
  <g transform="matrix(1 0 0 1 -202 -30 )">
    <path d="M 7.29027364950264 0.0568455457687389  L 8.92427272290255 0.0568455457687389  L 5.67953089486181 4.56875026226044  L 8.23678258035035 4.56875026226044  L 8.23678258035035 5.56616991758346  L 5.25773154739785 5.56616991758346  L 5.25773154739785 6.93983644247055  L 8.23678258035035 6.93983644247055  L 8.23678258035035 7.94972836971283  L 5.25773154739785 7.94972836971283  L 5.25773154739785 9.94995892047882  L 3.72502939679981 9.94995892047882  L 3.72502939679981 7.94972836971283  L 0.636929334792415 7.94972836971283  L 0.636929334792415 6.93983644247055  L 3.72502939679981 6.93983644247055  L 3.72502939679981 5.56616991758346  L 0.636929334792415 5.56616991758346  L 0.636929334792415 4.56875026226044  L 3.27168841066614 4.56875026226044  L 0.057955007637496 0.0568455457687389  L 1.78604578338893 0.0568455457687389  C 3.28775318111994 2.29760318994522  4.19939814204663 3.71905326843262  4.52266234001227 4.32009607553482  L 4.5536570928793 4.32009607553482  C 4.66326667988195 4.07251477241516  4.96326088694345 3.57407987117767  5.45257328674857 2.82479137182236  L 7.29027364950264 0.0568455457687389  Z " fill-rule="nonzero" fill="#ffffff" stroke="none" transform="matrix(1 0 0 1 202 30 )" />
  </g>
</svg>