<?xml version="1.0" encoding="utf-8"?>
<svg version="1.1" xmlns:xlink="http://www.w3.org/1999/xlink" width="39px" height="39px" xmlns="http://www.w3.org/2000/svg">
  <g transform="matrix(1 0 0 1 -27 -382 )">
    <path d="M 36.384765625 9.7119140625  C 38.1282552083333 12.6995442708333  39 15.9622395833333  39 19.5  C 39 23.0377604166667  38.1282552083333 26.3004557291667  36.384765625 29.2880859375  C 34.6412760416667 32.2757161458333  32.2757161458333 34.6412760416667  29.2880859375 36.384765625  C 26.3004557291667 38.1282552083333  23.0377604166667 39  19.5 39  C 15.9622395833333 39  12.6995442708333 38.1282552083333  9.7119140625 36.384765625  C 6.72428385416667 34.6412760416667  4.35872395833333 32.2757161458333  2.615234375 29.2880859375  C 0.871744791666667 26.3004557291667  0 23.0377604166667  0 19.5  C 0 15.9622395833333  0.871744791666667 12.6995442708333  2.615234375 9.7119140625  C 4.35872395833333 6.72428385416667  6.72428385416667 4.35872395833333  9.7119140625 2.615234375  C 12.6995442708333 0.871744791666663  15.9622395833333 0  19.5 0  C 23.0377604166667 0  26.3004557291667 0.871744791666663  29.2880859375 2.615234375  C 32.2757161458333 4.35872395833333  34.6412760416667 6.72428385416667  36.384765625 9.7119140625  Z " fill-rule="nonzero" fill="#000000" stroke="none" transform="matrix(1 0 0 1 27 382 )" />
  </g>
</svg>