<?xml version="1.0" encoding="utf-8"?>
<svg version="1.1" xmlns:xlink="http://www.w3.org/1999/xlink" width="39px" height="39px" xmlns="http://www.w3.org/2000/svg">
  <g transform="matrix(1 0 0 1 -132 -64 )">
    <path d="M 39 19.5  C 39 30.2694166582031  30.2694166582031 39  19.5 39  C 8.73058334179687 39  0 30.2694166582031  0 19.5  C 0 8.73058334179687  8.73058334179687 0  19.5 0  C 30.2694166582031 0  39 8.73058334179687  39 19.5  Z M 30.8793333164062 16.0788333164063  C 31.5910833164062 15.3714166582031  31.5910833164062 14.2230833291016  30.8793333164062 13.5156666708984  C 30.1675833164063 12.8082500126953  29.0138333291016 12.8082500126953  28.3020833291016 13.5156666708984  L 17.9919999873047 23.7726666708984  L 12.8364166582031 18.6463333417969  C 12.1246666582031 17.9378333291016  10.9709166708984 17.9378333291016  10.2591666708984 18.6463333417969  C 9.54741667089844 19.35375  9.54741667089844 20.5010000126953  10.2591666708984 21.2094999873047  L 16.7028333164062 27.6174166582031  C 17.4145833164063 28.3259166708984  18.5683333417969 28.3259166708984  19.2811666582031 27.6174166582031  L 30.8793333164062 16.0788333164063  Z " fill-rule="nonzero" fill="#f4df00" stroke="none" transform="matrix(1 0 0 1 132 64 )" />
  </g>
</svg>