<?xml version="1.0" encoding="utf-8"?>
<svg version="1.1" xmlns:xlink="http://www.w3.org/1999/xlink" width="101px" height="101px" xmlns="http://www.w3.org/2000/svg">
  <g transform="matrix(1 0 0 1 -137 -62 )">
    <path d="M 0 50.5  C 0 22.6085694882813  22.6085694882813 0  50.5 0  C 78.3900277558594 0  101 22.6099722441406  101 50.5  C 101 78.3900277558594  78.3900277558594 101  50.5 101  C 22.6085694882813 101  0 78.388625  0 50.5  Z M 71.3298472441406 66.7820416337891  L 56.4519861220703 51.9027777558594  L 71.3298472441406 37.0235138779297  C 72.1509041624931 36.2305107810038  72.614602184981 35.1379940990203  72.614602184981 33.9965089370893  C 72.614602184981 31.6723105967269  70.7304671591325 29.7881755708784  68.4062688187701 29.7881755708784  C 67.2647836568391 29.7881755708784  66.1722669748556 30.2518735933663  65.3792638779297 31.0729305117188  L 50.5 45.9507916337891  L 35.6207361220703 31.0729305117188  C 34.8277330251444 30.2518735933662  33.7352163431609 29.7881755708784  32.5937311812299 29.7881755708784  C 30.2695328408675 29.7881755708784  28.385397815019 31.6723105967269  28.385397815019 33.9965089370893  C 28.385397815019 35.1379940990203  28.8490958375069 36.2305107810037  29.6701527558594 37.0235138779297  L 44.5480138779297 51.9027777558594  L 29.6701527558594 66.7820416337891  C 28.8490958375068 67.575044730715  28.3853978150189 68.6675614126985  28.3853978150189 69.8090465746295  C 28.3853978150189 72.1332449149919  30.2695328408675 74.0173799408405  32.5937311812299 74.0173799408405  C 33.7352163431609 74.0173799408405  34.8277330251444 73.5536819183525  35.6207361220703 72.732625  L 50.5 57.8547638779297  L 65.3792638779297 72.732625  C 66.1722669748556 73.5536819183525  67.2647836568391 74.0173799408405  68.4062688187702 74.0173799408405  C 70.7304671591325 74.0173799408405  72.6146021849811 72.1332449149919  72.6146021849811 69.8090465746295  C 72.6146021849811 68.6675614126985  72.1509041624931 67.575044730715  71.3298472441406 66.7820416337891  Z " fill-rule="nonzero" fill="#ff0932" stroke="none" transform="matrix(1 0 0 1 137 62 )" />
  </g>
</svg>