<?xml version="1.0" encoding="utf-8"?>
<svg version="1.1" xmlns:xlink="http://www.w3.org/1999/xlink" width="97px" height="97px" xmlns="http://www.w3.org/2000/svg">
  <g transform="matrix(1 0 0 1 -139 -66 )">
    <path d="M 97 48.5  C 97 75.2854722011719  75.2854722011719 97  48.5 97  C 21.7145277988281 97  0 75.2854722011719  0 48.5  C 0 21.7145277988281  21.7145277988281 0  48.5 0  C 75.2854722011719 0  97 21.7145277988281  97 48.5  Z M 76.8024444023438 39.9909444023438  C 78.5726944023437 38.2314722011719  78.5726944023437 35.3753611005859  76.8024444023438 33.6158888994141  C 75.0321944023437 31.8564166982422  72.1626111005859 31.8564166982422  70.3923611005859 33.6158888994141  L 44.7493333017578 59.1268888994141  L 31.9264722011719 46.3767777988281  C 30.1562222011719 44.6146111005859  27.2866388994141 44.6146111005859  25.5163888994141 46.3767777988281  C 23.7461388994141 48.13625  23.7461388994141 50.9896666982422  25.5163888994141 52.7518333017578  L 41.5429444023437 68.6894722011719  C 43.3131944023437 70.4516388994141  46.1827777988281 70.4516388994141  47.9557222011719 68.6894722011719  L 76.8024444023438 39.9909444023438  Z " fill-rule="nonzero" fill="#23d3d3" stroke="none" transform="matrix(1 0 0 1 139 66 )" />
  </g>
</svg>