<?xml version="1.0" encoding="utf-8"?>
<svg version="1.1" xmlns:xlink="http://www.w3.org/1999/xlink" width="14px" height="16px" xmlns="http://www.w3.org/2000/svg">
  <g transform="matrix(1 0 0 1 -159 -282 )">
    <path d="M 11.3404256770041 0.0909528732299822  L 13.882202013404 0.0909528732299822  L 8.8348258364517 7.3100004196167  L 12.8127729027672 7.3100004196167  L 12.8127729027672 8.90587186813354  L 8.17869351817443 8.90587186813354  L 8.17869351817443 11.1037383079529  L 12.8127729027672 11.1037383079529  L 12.8127729027672 12.7195653915405  L 8.17869351817443 12.7195653915405  L 8.17869351817443 15.9199342727661  L 5.79449017279971 15.9199342727661  L 5.79449017279971 12.7195653915405  L 0.990778965232646 12.7195653915405  L 0.990778965232646 11.1037383079529  L 5.79449017279971 11.1037383079529  L 5.79449017279971 8.90587186813354  L 0.990778965232646 8.90587186813354  L 0.990778965232646 7.3100004196167  L 5.08929308325843 7.3100004196167  L 0.0901522341027715 0.0909528732299822  L 2.77829344082723 0.0909528732299822  C 5.11428272618657 3.67616510391236  6.53239710985032 5.95048522949219  7.03525252890798 6.91215372085571  L 7.08346658892336 6.91215372085571  C 7.25397039092747 6.51602363586426  7.72062804635647 5.71852779388428  8.48178066827555 4.51966619491577  L 11.3404256770041 0.0909528732299822  Z " fill-rule="nonzero" fill="#020202" stroke="none" transform="matrix(1 0 0 1 159 282 )" />
  </g>
</svg>