<?xml version="1.0" encoding="utf-8"?>
<svg version="1.1" xmlns:xlink="http://www.w3.org/1999/xlink" width="18px" height="11px" xmlns="http://www.w3.org/2000/svg">
  <g transform="matrix(1 0 0 1 -17 -17 )">
    <path d="M 10.0800347767223 10.45943925402  C 9.79689039417613 10.7525453885581  9.40340716219815 10.9239437272451  9.00127753038441 10.9239437272451  C 8.59653149454013 10.9239437272451  8.20433603979492 10.7525667267142  7.91990387961648 10.45943925402  L 0.529778020685369 2.73976832713896  C -0.0667834117542615 2.11697117149575  -0.0667834117542615 1.10555012325546  0.529778020685369 0.482774305976942  C 1.12730017755682 -0.138678136377426  2.09220278986151 -0.138678136377426  2.68860070578835 0.482774305976942  L 9.0012775501598 7.07072515928398  L 15.3088850830078 0.482774305976941  C 15.9078380792791 -0.138763510694783  16.8726589333274 -0.138763510694783  17.4702832830256 0.485442394189926  C 18.0668038463246 1.10557146162015  18.0668038463246 2.11699250986044  17.4702832830256 2.73976832713896  L 10.0800347767223 10.45943925402  Z " fill-rule="nonzero" fill="#000000" stroke="none" transform="matrix(1 0 0 1 17 17 )" />
  </g>
</svg>