<?xml version="1.0" encoding="utf-8"?>
<svg version="1.1" xmlns:xlink="http://www.w3.org/1999/xlink" width="9px" height="6px" xmlns="http://www.w3.org/2000/svg">
  <g transform="matrix(1 0 0 1 -345 -537 )">
    <path d="M 5.04001738836115 5.70514868401092  C 4.89844519708807 5.86502475739533  4.70170358109908 5.95851476031553  4.50063876519221 5.95851476031553  C 4.29826574727006 5.95851476031553  4.10216801989746 5.86503639638956  3.95995193980824 5.70514868401092  L 0.264889010342685 1.49441908753034  C -0.0333917058771307 1.15471154808859  -0.0333917058771307 0.603027339957524  0.264889010342685 0.263331439623787  C 0.563650088778409 -0.0756426198422326  1.04610139493075 -0.0756426198422326  1.34430035289418 0.263331439623787  L 4.5006387750799 3.85675917779126  L 7.65444254150391 0.263331439623786  C 7.95391903963956 -0.0756891876516998  8.43632946666371 -0.0756891876516998  8.73514164151278 0.264786760467233  C 9.03340192316229 0.603038979065534  9.03340192316229 1.1547231871966  8.73514164151278 1.49441908753034  L 5.04001738836115 5.70514868401092  Z " fill-rule="nonzero" fill="#a2a2a2" stroke="none" transform="matrix(1 0 0 1 345 537 )" />
  </g>
</svg>