<?xml version="1.0" encoding="utf-8"?>
<svg version="1.1" xmlns:xlink="http://www.w3.org/1999/xlink" width="11px" height="11px" xmlns="http://www.w3.org/2000/svg">
  <g transform="matrix(1 0 0 1 -330 -168 )">
    <path d="M 11 5.5  C 11 2.45666666308594  8.54333333691406 0  5.5 0  C 2.45666666308594 0  0 2.45666666308594  0 5.5  C 0 8.54333333691406  2.45666666308594 11  5.5 11  C 8.54333333691406 11  11 8.54333333691406  11 5.5  Z M 8.14 3.99666666308594  C 8.28666666308594 4.21666666308594  8.28666666308594 4.51  8.10333333691406 4.69333333691406  L 5.83 6.96666666308594  C 5.75666666308594 7.04  5.61 7.11333332617187  5.5 7.11333333691406  C 5.39 7.11333334765625  5.28 7.07666667382813  5.17 6.96666666308594  L 2.86 4.65666666308594  C 2.67666666308594 4.47333332617188  2.67666666308594 4.18  2.86 3.99666666308594  C 3.04333333691406 3.81333332617188  3.33666666308594 3.81333332617188  3.52 3.99666666308594  L 5.5 5.97666666308594  L 7.48 3.99666666308594  C 7.66333333691406 3.81333332617188  7.95666666308594 3.81333332617188  8.14 3.99666666308594  Z " fill-rule="nonzero" fill="#d5d5d5" stroke="none" transform="matrix(1 0 0 1 330 168 )" />
  </g>
</svg>