<?xml version="1.0" encoding="utf-8"?>
<svg version="1.1" xmlns:xlink="http://www.w3.org/1999/xlink" width="18px" height="24px" xmlns="http://www.w3.org/2000/svg">
  <g transform="matrix(1 0 0 1 -95 -67 )">
    <path d="M 16.1133774 3.4788602  C 16.1929751 3.4777403  16.2618001 3.4756308  16.3255995 3.472213  L 16.3488145 3.4712397  L 18 3.4212218  L 18 13.4704492  C 18 17.4204304  15.7695026 20.5036944  9.5875604 22.8435767  L 9.0126746 23.0743676  L 8.6459717 22.933447  L 8.4320606 22.8512223  C 2.2323913 20.5128108  0 17.424567  0 13.4704492  L 0 3.4208497  L 1.0302792 3.4520601  L 1.6537686 3.4709509  C 3.6898293 3.5379352  5.325991 3.1897214  6.6020417 2.5773371  C 6.9946007 2.3889457  7.3197284 2.1902999  7.5803583 1.9955109  C 7.7270311 1.885891  7.7870522 1.8325352  7.8190098 1.8029606  L 8.9727505 0.5452926  L 10.2789099 1.8833997  L 10.3488274 2.0236868  C 10.2632828 1.8520444  10.3299799 1.9173901  10.2150811 1.8149876  C 10.2706265 1.8644919  10.3433491 1.9238185  10.4318188 1.9896883  C 10.696735 2.1869306  11.0286361 2.3888852  11.4278075 2.5797832  C 12.5990336 3.1399052  14.0692429 3.48  15.8632059 3.48  C 15.9930368 3.4799917  16.0462544 3.4798046  16.1133774 3.4788602  Z M 8.9997544 20.9274249  C 14.328548 18.8813458  16 16.5445615  16 13.4704492  L 16 5.4798437  C 15.9623808 5.4799669  15.9188024 5.4800034  15.8632059 5.48  C 12.7434676 5.48  10.0617233 4.4263941  8.9814343 3.4392657  C 8.9231786 3.4867177  8.8567596 3.5384139  8.7776678 3.5975252  C 8.415124 3.8684824  7.9792389 4.1347985  7.467366 4.3804493  C 5.9942142 5.0874237  4.1747228 5.497666  2 5.4785219  L 2 13.4704492  C 2 16.5476208  3.6718517 18.8877224  8.9997544 20.9274249  Z M 5.3681578 11.3949386  C 5.796232 11.0459817  6.4261402 11.1101191  6.775097 11.5381934  L 8.2639447 13.3646008  L 11.8028188 10.2493917  C 12.2173684 9.884471  12.8492538 9.9247031  13.2141746 10.3392526  C 13.5790953 10.7538021  13.5388632 11.3856876  13.1243136 11.7506083  L 9.0397203 15.3462045  C 9.021133 15.3623595  9.021133 15.3623595  9.0021436 15.3780398  C 8.445647 15.8316837  7.6267664 15.7483052  7.1731226 15.1918086  L 5.224903 12.8018778  C 4.8759461 12.3738035  4.9400835 11.7438954  5.3681578 11.3949386  Z " fill-rule="nonzero" fill="#ffffff" stroke="none" transform="matrix(1 0 0 1 95 67 )" />
  </g>
</svg>