<?xml version="1.0" encoding="utf-8"?>
<svg version="1.1" xmlns:xlink="http://www.w3.org/1999/xlink" width="22px" height="22px" xmlns="http://www.w3.org/2000/svg">
  <g transform="matrix(1 0 0 1 -27 -67 )">
    <path d="M 17.7001115 16.4934225  C 17.7852964 16.5809464  17.8492785 16.6813205  17.8921013 16.7881477  C 19.2075918 15.2233925  20 13.2042347  20 11  C 20 6.0294373  15.9705627 2  11 2  C 6.0294373 2  2 6.0294373  2 11  C 2 15.9705627  6.0294373 20  11 20  C 13.163911 20  15.1494547 19.2363189  16.7018175 17.9637702  C 16.5988339 17.9209892  16.5020916 17.8583852  16.4173913 17.7759197  L 15.1371237 16.4960981  C 15.0523952 16.4107504  14.9853398 16.3095232  14.9397993 16.1982163  C 13.7494825 16.8069254  12.2932161 16.4590095  11.5065914 15.3779903  C 10.7199667 14.2969711  10.8368893 12.8042935  11.7822414 11.8589415  C 12.7275934 10.9135894  14.220271 10.7966668  15.3012902 11.5832915  C 16.3823094 12.3699162  16.7302253 13.8261826  16.1215162 15.0164994  C 16.2331912 15.0613415  16.3345498 15.128484  16.419398 15.2138239  L 17.7001115 16.4934225  Z M 22 11  C 22 17.0751322  17.0751322 22  11 22  C 4.9248678 22  0 17.0751322  0 11  C 0 4.9248678  4.9248678 0  11 0  C 17.0751322 0  22 4.9248678  22 11  Z M 5.5232999 7.2833891  C 5.5232999 6.7862712  5.9262935 6.3832776  6.4234114 6.3832776  L 15.4787068 6.3832776  C 15.9758246 6.3832776  16.3788183 6.7862712  16.3788183 7.2833891  C 16.3788183 7.7805069  15.9758246 8.1835006  15.4787068 8.1835006  L 6.4234114 8.1835006  C 5.9262935 8.1835006  5.5232999 7.7805069  5.5232999 7.2833891  Z M 8.23233 14.5284281  C 8.23233 15.0255459  7.8293364 15.4285396  7.3322185 15.4285396  L 6.4247492 15.4285396  C 5.9276313 15.4285396  5.5246377 15.0255459  5.5246377 14.5284281  C 5.5246377 14.0313102  5.9276313 13.6283166  6.4247492 13.6283166  L 7.3322185 13.6283166  C 7.8293364 13.6283166  8.23233 14.0313102  8.23233 14.5284281  Z M 9.9266254 11.3381976  C 9.7626333 11.6188302  9.4601123 11.7892843  9.1351171 11.7841695  L 6.4220736 11.7841695  C 6.0970783 11.7892843  5.7945574 11.6188302  5.6305653 11.3381976  C 5.4665731 11.057565  5.4665731 10.710328  5.6305653 10.4296954  C 5.7945574 10.1490627  6.0970783 9.9786087  6.4220736 9.9837235  L 9.1351171 9.9837235  C 9.4601123 9.9786087  9.7626333 10.1490627  9.9266254 10.4296954  C 10.0906175 10.710328  10.0906175 11.057565  9.9266254 11.3381976  Z M 12.806243 13.7819398  C 12.8068573 14.278803  13.2094913 14.681437  13.7063545 14.6820513  C 14.2034724 14.6820513  14.606466 14.2790576  14.606466 13.7819398  C 14.606466 13.284822  14.2034724 12.8818283  13.7063545 12.8818283  C 13.2092367 12.8818283  12.806243 13.284822  12.806243 13.7819398  Z " fill-rule="nonzero" fill="#ffffff" stroke="none" transform="matrix(1 0 0 1 27 67 )" />
  </g>
</svg>