<?xml version="1.0" encoding="utf-8"?>
<svg version="1.1" xmlns:xlink="http://www.w3.org/1999/xlink" width="33px" height="29px" xmlns="http://www.w3.org/2000/svg">
  <g transform="matrix(1 0 0 1 -171 -67 )">
    <path d="M 27.194990075 22.4309024619048  L 24.75 19.9753280142857  L 24.75 26.2386843523809  C 24.75 27.0013632238095  24.1343914625 27.6196367333333  23.375 27.6196367333333  C 22.6156085375 27.6196367333333  22 27.0013632238095  22 26.2386843523809  L 22 19.8365352571429  L 19.4168154125 22.4309024619048  C 18.8798446375 22.9701979238095  18.0092427625 22.9701979238095  17.47227185 22.4309024619048  C 16.9353009375 21.891607  16.9353009375 21.0172362857143  17.47227185 20.4779408238095  L 21.8474950375 16.0837772761905  C 22.6529513375 15.2748340142857  23.95885415 15.2748340142857  24.76431045 16.0837772761905  L 29.139533775 20.4779408238095  C 29.67650455 21.0172362857143  29.67650455 21.891607  29.139533775 22.4309024619048  C 28.6025628625 22.9701979238095  27.7319609875 22.9701979238095  27.194990075 22.4309024619048  Z M 23.4827011375 5.72724535238095  C 23.5353932 5.82097984285714  23.5759990125 5.91826407142857  23.60502155 6.01728332857143  C 24.2616496375 6.05301284761905  24.9245198125 6.15725472857143  25.5850214125 6.33500166666667  C 30.719632625 7.71677253809524  33.76673905 13.0173631238095  32.3909240875 18.1742020904762  C 32.1943791125 18.9108933714286  31.440415875 19.3480787285714  30.7068999875 19.1506829095238  C 29.9733841 18.9532870904762  29.5380831625 18.1960598047619  29.7346281375 17.4593685238095  C 30.7173530125 13.7759121190476  28.5408484625 9.98977596666666  24.873269025 9.00279687142857  C 21.2056895875 8.01581763809524  17.4358729875 10.2017444238095  16.453147975 13.8852008285714  C 16.256603 14.6218921095238  15.5026397625 15.0590774666667  14.769123875 14.861681647619  C 14.0356079875 14.6642856904762  13.60030705 13.9070585428571  13.796852025 13.1703672619048  C 14.7215828375 9.70428463809524  17.409060625 7.18534201428571  20.631023325 6.32574652380952  C 18.78917095 3.47309385714286  16.52288275 2.38428927142857  13.6544755875 2.87783005238095  C 10.6125058875 3.40123406666667  8.993031025 5.53086632857143  8.677676425 9.66431062380952  L 8.6103518875 10.5467545238095  L 7.783912125 10.8539192095238  C 4.325809125 12.1392001761905  2.75 13.9808745904762  2.75 16.4912772666667  C 2.75 19.6884047761905  6.06870825 21.9895836380952  9.4625157 21.9895836380952  L 14.012062075 21.9895836380952  C 14.771453675 21.9895836380952  15.387062075 22.6078570095238  15.387062075 23.3705360190476  C 15.387062075 24.1332148904762  14.771453675 24.7514884  14.012062075 24.7514884  L 9.4625157 24.7514884  C 4.72038875 24.7514884  0 21.4783901428571  0 16.4912772666667  C 0 12.9340493  2.0917314 10.2679721380952  6.0224561375 8.58568130952381  C 6.6205249 3.79077905238095  9.0429711625 0.869146709523811  13.190112925 0.155585690476188  C 17.5134746875 -0.588295795238096  21.019846375 1.34605626666666  23.4827011375 5.72724535238095  Z " fill-rule="nonzero" fill="#ffffff" stroke="none" transform="matrix(1 0 0 1 171 67 )" />
  </g>
</svg>