<?xml version="1.0" encoding="utf-8"?>
<svg version="1.1" xmlns:xlink="http://www.w3.org/1999/xlink" width="22px" height="23px" xmlns="http://www.w3.org/2000/svg">
  <g transform="matrix(1 0 0 1 -260 -68 )">
    <path d="M 19 15.3536098  L 19 21  L 21 21  C 21.5522847 21  22 21.4477153  22 22  C 22 22.5522847  21.5522847 23  21 23  L 1 23  C 0.447715299999999 23  0 22.5522847  0 22  C 0 21.4477153  0.447715299999999 21  1 21  L 3 21  L 3 13.9814311  C 3 9.5728129  6.5823157 6  11 6  C 15.4176843 6  19 9.5728129  19 13.9814311  L 19 15.3536098  Z M 5 21  L 17 21  L 17 13.9814311  C 17 10.6785734  14.3143022 8  11 8  C 7.6856978 8  5 10.6785734  5 13.9814311  L 5 21  Z M 12.0339992 10  L 11.2511687 13.9891752  L 14 13.9891752  L 9.9668508 19  L 10.7488313 15.0108248  L 8 15.0108248  L 12.0339992 10  Z M 11 0  C 11.5522847 0  12 0.4477153  12 1  L 12 3  C 12 3.5522847  11.5522847 4  11 4  C 10.4477153 4  10 3.5522847  10 3  L 10 1  C 10 0.4477153  10.4477153 0  11 0  Z M 19.5355339 3.4142136  C 19.9260582 3.8047379  19.9260582 4.4379028  19.5355339 4.8284271  L 18.1213203 6.2426407  C 17.7307961 6.633165  17.0976311 6.633165  16.7071068 6.2426407  C 16.3165825 5.8521164  16.3165825 5.2189514  16.7071068 4.8284271  L 18.1213203 3.4142136  C 18.5118446 3.0236893  19.1450096 3.0236893  19.5355339 3.4142136  Z M 2.4142136 3.4142136  C 2.8047379 3.0236893  3.4379028 3.0236893  3.8284271 3.4142136  L 5.2426407 4.8284271  C 5.633165 5.2189514  5.633165 5.8521164  5.2426407 6.2426407  C 4.8521164 6.633165  4.2189514 6.633165  3.8284271 6.2426407  L 2.4142136 4.8284271  C 2.0236893 4.4379028  2.0236893 3.8047379  2.4142136 3.4142136  Z " fill-rule="nonzero" fill="#f9f9f9" stroke="none" transform="matrix(1 0 0 1 260 68 )" />
  </g>
</svg>